<svg id="visual" viewBox="0 0 900 600" width="900" height="600" xmlns="http://www.w3.org/2000/svg" xmlns:xlink="http://www.w3.org/1999/xlink" version="1.1"><path d="M0 525L25 520.7C50 516.3 100 507.7 150 507.7C200 507.7 250 516.3 300 520.8C350 525.3 400 525.7 450 516.5C500 507.3 550 488.7 600 482.7C650 476.7 700 483.3 750 496.7C800 510 850 530 875 540L900 550L900 601L875 601C850 601 800 601 750 601C700 601 650 601 600 601C550 601 500 601 450 601C400 601 350 601 300 601C250 601 200 601 150 601C100 601 50 601 25 601L0 601Z" fill="#000000" stroke-linecap="round" stroke-linejoin="miter"></path></svg>